<svg width="41" height="45" viewBox="0 0 41 45" fill="none" xmlns="http://www.w3.org/2000/svg">
<path d="M39.3976 43.6233H34.7162V42.213C34.7162 38.9833 33.8543 36.4906 32.1545 34.804C32.0189 34.6695 31.8811 34.5434 31.742 34.4251C31.8977 34.247 32.0319 34.0352 32.1439 33.8093C32.246 33.9111 32.3434 33.9958 32.428 34.0592C32.9111 34.4217 33.7715 34.5868 34.3665 34.5868C35.2025 34.5868 35.6057 34.2839 35.7967 34.0297C36.2053 33.4862 36.0354 32.7196 35.8208 32.1722C35.6377 31.7049 35.296 31.096 34.8862 30.7885C34.7963 30.7209 34.6886 30.6525 34.5689 30.5864C34.9737 30.2117 35.3687 29.6824 35.2841 29.0877C35.1463 28.1193 33.7477 27.5469 32.8587 27.4415C32.86 27.3812 32.8575 27.3206 32.8489 27.2599C32.6956 26.183 30.9833 25.5956 30.1464 25.5956C30.0638 25.5956 29.9847 25.6009 29.9115 25.6113C29.4919 25.6708 28.9246 25.8771 28.4491 26.2179C29.5244 24.3458 29.7795 22.6611 29.7906 22.5844C29.7953 22.5517 29.7977 22.5187 29.7977 22.4856V22.3383C30.2815 22.219 30.7024 21.9696 31.0366 21.5999C32.0117 20.5209 31.9551 18.8186 31.8854 18.137C31.8325 17.618 31.5976 17.1825 31.206 16.8777C30.7777 16.5441 30.237 16.4275 29.7976 16.3952V15.6791C32.8303 15.4912 34.8419 13.9896 36.0186 12.7167C37.3709 11.2535 37.9262 9.79072 37.9492 9.72914C37.9507 9.72529 37.9515 9.72143 37.9529 9.71758C37.9576 9.70436 37.9617 9.69106 37.9656 9.67757C37.968 9.66922 37.9704 9.66086 37.9725 9.65251C37.9754 9.64049 37.9778 9.62838 37.9801 9.61617C37.9819 9.60653 37.984 9.5969 37.9854 9.58726C37.987 9.57708 37.9876 9.5668 37.9886 9.55652C37.993 9.51366 37.9931 9.47099 37.9895 9.42887C37.9886 9.41905 37.988 9.40923 37.9868 9.3995C37.9854 9.3894 37.9835 9.37949 37.9817 9.36949C37.9796 9.3582 37.9778 9.34701 37.9753 9.33581C37.9732 9.32682 37.9707 9.31801 37.9683 9.3091C37.9651 9.29717 37.9618 9.28534 37.958 9.2735C37.9552 9.26515 37.9521 9.25698 37.9491 9.24881C37.9446 9.23706 37.9401 9.22541 37.935 9.21375C37.9314 9.2054 37.9275 9.19724 37.9235 9.18898C37.9184 9.17833 37.913 9.16778 37.9072 9.15731C37.9022 9.14832 37.8972 9.1396 37.8918 9.13079C37.8863 9.1218 37.8806 9.11299 37.8748 9.10418C37.8682 9.09454 37.8615 9.08491 37.8545 9.07555C37.8522 9.07233 37.8501 9.06894 37.8476 9.06573C37.8404 9.05646 37.8323 9.04664 37.8234 9.03618C37.8234 9.03608 37.8233 9.03608 37.8232 9.03599C37.5343 8.69598 36.3217 7.74404 31.8439 7.74404C30.8464 7.74404 29.1002 7.55058 28.6138 6.25459C27.0568 2.1045 25.4768 0 23.9181 0C22.4108 0 20.7245 0.679475 20.0433 0.984615C19.3619 0.679475 17.6756 0 16.1682 0C14.6097 0 13.0297 2.10441 11.4722 6.25486C10.986 7.55086 9.23979 7.74431 8.24226 7.74431C6.19925 7.74431 2.73811 7.93428 2.16569 9.18319C2.15256 9.20962 2.14053 9.2367 2.13089 9.2646C2.13089 9.26478 2.1308 9.26487 2.1307 9.26496C2.13043 9.2657 2.13034 9.26643 2.13015 9.26717C2.12124 9.29341 2.11436 9.3203 2.10866 9.34747C2.10719 9.35453 2.10591 9.36151 2.10462 9.36848C2.10021 9.39326 2.097 9.41822 2.09526 9.44355C2.09507 9.44667 2.09461 9.44979 2.09443 9.453C2.09296 9.48145 2.09342 9.51008 2.09553 9.53881C2.0959 9.5445 2.09682 9.55 2.09737 9.5556C2.09957 9.57818 2.10297 9.60075 2.10747 9.62333C2.10894 9.63076 2.11041 9.63801 2.11206 9.64535C2.11766 9.66949 2.12464 9.69344 2.133 9.7173C2.13419 9.72061 2.13493 9.72391 2.13612 9.72712C2.1364 9.72786 2.13649 9.7285 2.13677 9.72923C2.15972 9.79081 2.71515 11.2535 4.06754 12.7168C5.24415 13.9898 7.25584 15.4913 10.2885 15.6792V16.394C9.84627 16.4248 9.29737 16.54 8.86371 16.8778C8.47221 17.1826 8.2372 17.6181 8.18421 18.1371C8.11469 18.8189 8.05803 20.5212 9.03325 21.6C9.37111 21.9739 9.79788 22.2245 10.2884 22.342V22.4858C10.2884 22.5189 10.2908 22.5519 10.2955 22.5846C10.3076 22.6678 10.6066 24.647 11.9321 26.7036C12.7823 28.0228 14.1786 29.5445 16.3879 30.4568C16.3825 30.4917 16.3788 30.5272 16.3788 30.5635V32.6499H12.9333C12.819 32.6512 10.0983 32.6545 7.93185 34.8041C6.23204 36.4906 5.37015 38.9834 5.37015 42.2131V43.6234H0.688775C0.308388 43.6234 0 43.9316 0 44.3117C0 44.6918 0.308388 45 0.688775 45H39.3977C39.7782 45 40.0865 44.6918 40.0865 44.3117C40.0864 43.9315 39.7781 43.6233 39.3976 43.6233ZM33.3387 42.213V43.6233H29.8802V34.805C30.3173 35.0473 30.7639 35.3642 31.1839 35.7809C32.6137 37.1995 33.3387 39.3636 33.3387 42.213ZM20.0432 38.0802C22.394 38.0802 24.3368 36.3054 24.603 34.0265H26.0304V39.7666H14.0891V34.0265H15.4834C15.7495 36.3054 17.6923 38.0802 20.0432 38.0802ZM27.5239 29.6288C27.591 29.4362 27.7099 29.2013 27.8951 29.1749C27.9093 29.1729 27.9226 29.1719 27.9357 29.1719C28.2739 29.1719 28.6763 29.9157 28.7403 30.3652C28.7835 30.6688 28.4834 31.4749 28.2562 31.7133C27.9715 31.5478 27.4585 30.8571 27.4154 30.5534C27.3914 30.3851 27.3998 29.9852 27.5239 29.6288ZM29.9592 31.4566C30.0262 31.264 30.1451 31.0291 30.3304 31.0028C30.3445 31.0007 30.3578 30.9997 30.371 30.9997C30.7091 30.9997 31.1115 31.7435 31.1755 32.193C31.2187 32.4966 30.9187 33.3026 30.6915 33.5411C30.4067 33.3754 29.8938 32.6848 29.8506 32.3812C29.8266 32.2129 29.8349 31.8129 29.9592 31.4566ZM26.0515 30.7474C26.1253 31.2651 26.6004 32.1214 27.2234 32.6508C27.1889 32.65 27.1657 32.6499 27.158 32.6499H23.7076V30.5635C23.7076 30.5272 23.7039 30.4917 23.6984 30.4568C24.7899 30.0061 25.6824 29.4067 26.4092 28.7565C26.3383 28.8848 26.2759 29.0246 26.2232 29.176C26.0159 29.77 26.0012 30.3938 26.0515 30.7474ZM13.4004 41.1431H26.7193C27.0997 41.1431 27.408 40.835 27.408 40.4548V34.0398C27.6438 34.0602 28.0333 34.1122 28.5026 34.2427V43.6233H11.617V34.2271C12.0913 34.0991 12.4814 34.0526 12.7115 34.0359V40.4548C12.7116 40.835 13.02 41.1431 13.4004 41.1431ZM34.3665 33.2103C33.8645 33.2103 33.3692 33.044 33.2553 32.9586C33.1192 32.8564 32.8419 32.5677 32.6776 32.2279C32.5888 32.0444 32.5068 31.7943 32.6188 31.6449C32.6189 31.6449 32.6189 31.6449 32.6189 31.6448C32.619 31.6447 32.6191 31.6445 32.6191 31.6444C32.6453 31.6096 32.7147 31.5181 32.9714 31.5181C33.3584 31.5181 33.8517 31.7337 34.059 31.8893C34.3034 32.0727 34.66 32.8497 34.6704 33.181C34.6089 33.1957 34.5092 33.2103 34.3665 33.2103ZM32.729 30.1261C32.7 30.1302 32.6368 30.1372 32.5407 30.1372C32.0705 30.1372 31.3948 29.9667 31.3494 29.6467C31.323 29.4616 31.5157 29.2821 31.682 29.164C31.9899 28.9455 32.372 28.826 32.5406 28.8022C32.5428 28.8019 32.5557 28.8002 32.5816 28.8002C32.9842 28.8002 33.6742 29.0829 33.8894 29.2862C33.7235 29.5708 33.0328 30.0829 32.729 30.1261ZM30.1056 26.9744C30.1078 26.9741 30.1207 26.9723 30.1465 26.9723C30.549 26.9723 31.2391 27.2551 31.4543 27.4584C31.2881 27.7429 30.5974 28.2551 30.2937 28.2983C30.2647 28.3024 30.2014 28.3094 30.1054 28.3094C29.6352 28.3094 28.9596 28.1389 28.9142 27.8189C28.8626 27.4567 29.6711 27.0361 30.1056 26.9744ZM30.3595 17.9635C30.426 18.0153 30.4965 18.0931 30.5152 18.2768C30.5972 19.0788 30.5086 20.1306 30.0145 20.6774C29.9482 20.7506 29.8759 20.811 29.7979 20.8617V17.7782C30.0099 17.8028 30.2232 17.8574 30.3595 17.9635ZM29.7979 14.2988V13.3403C32.1365 12.8563 33.8655 12.24 35.1058 11.6663C34.0239 12.8737 32.3159 14.1162 29.7979 14.2988ZM8.24226 9.12097C10.5803 9.12097 12.1855 8.27475 12.7621 6.73822C14.1445 3.05443 15.4968 1.37657 16.1682 1.37657C17.7419 1.37657 19.7158 2.35036 19.7355 2.36018C19.7415 2.36311 19.7476 2.36532 19.7536 2.36807C19.7611 2.37156 19.7687 2.37477 19.7763 2.37798C19.7902 2.38376 19.804 2.38927 19.8181 2.39413C19.8242 2.39624 19.8304 2.39808 19.8366 2.4001C19.8522 2.40505 19.8678 2.40955 19.8835 2.41331C19.8886 2.4145 19.8939 2.41551 19.899 2.41662C19.9156 2.42019 19.9322 2.42341 19.949 2.4257C19.9543 2.42643 19.9596 2.42689 19.965 2.42754C19.9815 2.42937 19.9978 2.43093 20.0143 2.43157C20.021 2.43185 20.0276 2.43176 20.0343 2.43185C20.0493 2.43203 20.0644 2.43203 20.0794 2.43121C20.0877 2.43075 20.0961 2.42983 20.1044 2.4291C20.1178 2.4279 20.1312 2.42662 20.1445 2.4246C20.154 2.42322 20.1635 2.4213 20.173 2.41946C20.1853 2.41707 20.1977 2.41469 20.2097 2.41166C20.2193 2.40927 20.2289 2.40643 20.2385 2.40358C20.2507 2.39991 20.263 2.39615 20.2749 2.39193C20.2839 2.38872 20.2926 2.38523 20.3014 2.38165C20.3141 2.37651 20.3265 2.37119 20.3388 2.36532C20.3428 2.36339 20.3468 2.3621 20.3507 2.36008C20.3706 2.35036 22.3444 1.37657 23.9181 1.37657C24.5897 1.37657 25.942 3.05443 27.3243 6.73822C27.9009 8.27475 29.5061 9.12097 31.8442 9.12097C34.062 9.12097 35.3356 9.36986 36.0339 9.59525C35.4774 9.95609 34.5959 10.4405 33.3089 10.9224C29.0573 12.5144 23.7483 12.8485 20.0433 12.8485C16.3382 12.8485 11.0292 12.5143 6.77755 10.9224C5.44353 10.4228 4.54518 9.92058 3.99334 9.55661C4.63739 9.35371 5.88931 9.12097 8.24226 9.12097ZM5.11393 11.8198C5.06452 11.7669 5.01667 11.7141 4.96965 11.6611C6.21064 12.2362 7.94287 12.8548 10.2885 13.3403V14.2977C8.2598 14.1545 6.52068 13.3244 5.11393 11.8198ZM10.0556 20.6774C9.56149 20.1307 9.47287 19.0788 9.55469 18.2768C9.57334 18.0939 9.64313 18.0165 9.70898 17.9647C9.84839 17.8552 10.0695 17.8001 10.2884 17.7765V20.8718C10.2042 20.8193 10.1264 20.7557 10.0556 20.6774ZM13.1178 26.0007C12.0401 24.3478 11.7157 22.7114 11.666 22.4295V13.5968C13.9371 13.9753 16.7009 14.2251 20.0432 14.2251C23.3855 14.2251 26.1493 13.9753 28.4203 13.5969V22.4294C28.37 22.7147 28.0452 24.3495 26.9686 26.0008C26.8888 26.1231 26.8064 26.2419 26.7226 26.3586L24.5203 24.7056C24.454 24.6558 24.3816 24.6207 24.3066 24.5979C24.2967 24.5854 24.2869 24.5726 24.2758 24.5606C24.0194 24.2797 23.586 24.2577 23.3051 24.5138C23.301 24.5174 22.883 24.8795 22.0585 25.1626C21.6988 25.2861 21.5073 25.6777 21.631 26.0372C21.7291 26.3226 21.9964 26.5019 22.2823 26.5019C22.3566 26.5019 22.4321 26.4898 22.5062 26.4644C23.0668 26.2718 23.4879 26.0478 23.7745 25.8673L25.8341 27.4132C24.3706 28.8895 22.4517 29.7145 20.1073 29.8706H19.9793C16.97 29.6701 14.6614 28.3682 13.1178 26.0007ZM19.9121 31.2458C19.9269 31.2467 19.9418 31.2472 19.9567 31.2472H20.1299C20.1448 31.2472 20.1596 31.2468 20.1744 31.2458C20.955 31.1952 21.6713 31.0776 22.3301 30.9091V33.3382C22.3301 33.7184 22.6384 34.0265 23.0189 34.0265H23.2124C22.9566 35.5438 21.6333 36.7036 20.0433 36.7036C18.4532 36.7036 17.1299 35.5438 16.8742 34.0265H17.0677C17.4481 34.0265 17.7565 33.7184 17.7565 33.3382V30.9091C18.4153 31.0776 19.1315 31.1952 19.9121 31.2458ZM6.7478 42.213C6.7478 37.7234 8.57186 35.6962 10.2395 34.7806V43.6233H6.7478V42.213Z" fill="#595959"/>
<path d="M15.1473 17.5855C15.6013 17.5855 15.9693 17.2177 15.9693 16.7641C15.9693 16.3104 15.6013 15.9426 15.1473 15.9426C14.6933 15.9426 14.3252 16.3104 14.3252 16.7641C14.3252 17.2177 14.6933 17.5855 15.1473 17.5855Z" fill="#595959"/>
<path d="M24.9254 17.5855C25.3794 17.5855 25.7475 17.2177 25.7475 16.7641C25.7475 16.3104 25.3794 15.9426 24.9254 15.9426C24.4714 15.9426 24.1034 16.3104 24.1034 16.7641C24.1034 17.2177 24.4714 17.5855 24.9254 17.5855Z" fill="#595959"/>
<path d="M21.8672 19.951C21.8672 19.5709 21.5588 19.2627 21.1784 19.2627C20.7979 19.2627 20.4896 19.5709 20.4896 19.951C20.4896 20.1028 20.3659 20.2263 20.214 20.2263H19.8588C19.7069 20.2263 19.5833 20.1028 19.5833 19.951C19.5833 19.5709 19.2749 19.2627 18.8945 19.2627C18.5141 19.2627 18.2057 19.5709 18.2057 19.951C18.2057 20.8618 18.9473 21.6029 19.8588 21.6029H20.214C21.1256 21.6029 21.8672 20.8619 21.8672 19.951Z" fill="#595959"/>
</svg>
