<svg width="39" height="45" viewBox="0 0 39 45" fill="none" xmlns="http://www.w3.org/2000/svg">
<path d="M7.40128 9.18801C7.40128 9.71112 6.97763 10.1348 6.45452 10.1348C5.9314 10.1348 5.50775 9.71112 5.50775 9.18801C5.50775 8.66489 5.9314 8.24124 6.45452 8.24124C6.97763 8.24124 7.40128 8.66489 7.40128 9.18801Z" fill="#595959"/>
<path d="M32.9466 34.0456C32.0643 34.0456 31.2314 34.2591 30.4946 34.6347V18.9263C30.4946 18.5991 30.3793 18.2991 30.1877 18.0629C30.3628 17.5245 30.4524 16.9639 30.4524 16.3895C30.4524 15.0389 29.9546 13.8036 29.1347 12.854C29.7891 11.3317 29.7396 10.048 28.9795 9.29198C28.3773 8.69322 27.4459 8.53838 26.3167 8.83845C26.1842 7.7017 25.708 6.90382 24.9448 6.56118C24.149 6.20413 23.1993 6.40532 22.2253 7.12458C21.629 5.9408 20.7923 5.27201 19.8715 5.26651C19.8677 5.26651 19.8636 5.26651 19.8595 5.26651C18.2641 5.26651 16.9838 7.23582 16.6305 10.0871C15.9391 9.76645 15.17 9.58621 14.3594 9.58621C12.959 9.58621 11.6218 10.1335 10.6227 11.0834C5.83027 2.24149 3.05793 -0.851165 1.0282 0.195284C-1.2288 1.35881 0.150671 6.23915 5.95386 17.5537H5.75405C4.99702 17.5537 4.38144 18.1693 4.38144 18.9263V43.6274C4.38144 44.3841 4.99702 45 5.75405 45H22.0962C22.4615 45 22.7578 44.7037 22.7578 44.3384C22.7578 43.9731 22.4615 43.6772 22.0962 43.6772H5.75405C5.72624 43.6772 5.70392 43.6549 5.70392 43.6274V18.9263C5.70392 18.8988 5.72624 18.8765 5.75405 18.8765H9.42074V25.4254C9.42074 29.8461 13.0171 33.4427 17.4377 33.4427C21.8583 33.4427 25.455 29.8461 25.455 25.4254V18.8765H29.1217C29.1491 18.8765 29.1714 18.8988 29.1714 18.9263V35.5826C28.1593 36.5676 27.529 37.943 27.529 39.4636C27.529 40.9841 28.1593 42.3595 29.1714 43.3442V43.6274C29.1714 43.6549 29.1491 43.6775 29.1217 43.6775H25.2078C24.8425 43.6775 24.5465 43.9735 24.5465 44.3388C24.5465 44.7041 24.8425 45 25.2078 45H29.1217C29.6658 45 30.1355 44.6814 30.3573 44.2213C31.127 44.6419 32.0093 44.8812 32.9466 44.8812C35.9339 44.8812 38.3643 42.4508 38.3643 39.4636C38.3643 36.476 35.9339 34.0456 32.9466 34.0456ZM26.8701 17.5537C26.2456 15.3575 24.2997 13.7823 22.0032 13.6388C22.7688 12.7987 23.8668 12.2943 25.0347 12.2943C27.2924 12.2943 29.1296 14.1315 29.1296 16.3892C29.1296 16.7881 29.0722 17.1778 28.961 17.5537H26.8701ZM17.8452 17.5537C18.4464 16.007 19.9436 14.9496 21.6606 14.9496C23.3765 14.9496 24.8748 16.0074 25.4763 17.5537H17.8452ZM19.8598 6.58899H19.8633C20.3422 6.59208 20.8764 7.2111 21.2568 8.20502C21.3564 8.46491 21.5775 8.6582 21.8484 8.72172C22.1192 8.78523 22.4032 8.71073 22.6085 8.52259C23.3119 7.87611 23.9996 7.58669 24.403 7.76797C24.792 7.94272 25.0272 8.58851 25.0317 9.49591C25.033 9.77194 25.17 10.0301 25.398 10.1856C25.6259 10.3412 25.9157 10.3745 26.1735 10.2753C27.0391 9.94086 27.7394 9.92438 28.0467 10.2299C28.3358 10.5173 28.3392 11.1418 28.081 11.9119C27.2124 11.319 26.1632 10.9719 25.0347 10.9719C23.0479 10.9719 21.2136 12.0746 20.2718 13.807C20.0706 13.8602 19.8739 13.9248 19.6823 14C19.4499 12.7664 18.799 11.6798 17.8823 10.8932C18.0533 8.33788 19.0345 6.58899 19.8598 6.58899ZM14.3591 10.9087C16.5097 10.9087 18.2771 12.5755 18.4405 14.6849C17.4981 15.3805 16.7857 16.3778 16.4517 17.5537H13.9784C13.5417 16.6751 13.0648 15.7338 12.5573 14.7498C12.1165 13.8949 11.6911 13.0819 11.2795 12.3074C12.0533 11.4261 13.1764 10.9087 14.3591 10.9087ZM8.07766 9.23087C7.06245 9.66929 6.28071 9.83134 5.8773 9.84095C6.11282 9.52269 6.67965 8.99535 7.61246 8.4268C7.76489 8.68739 7.92008 8.95552 8.07766 9.23087ZM7.37385 17.4226C4.83463 12.4972 3.14479 8.81236 2.20821 6.15641C0.765219 2.06399 1.47693 1.45185 1.63417 1.37082C1.79176 1.2898 2.70328 1.06492 5.19993 4.61386C5.73379 5.3726 6.31126 6.26387 6.93645 7.29246C5.844 7.96297 3.93581 9.34794 4.54486 10.529C4.78519 10.9952 5.27408 11.1631 5.85361 11.1631C6.80256 11.1627 7.99355 10.7127 8.72998 10.3875C9.09458 11.0426 10.323 13.3271 10.5118 13.6862C9.44649 14.1596 8.62492 14.3351 8.20469 14.3457C8.24555 14.2901 8.29945 14.2238 8.36914 14.1473C8.6153 13.8774 8.59608 13.4589 8.32623 13.2127C8.05672 12.9669 7.63821 12.9858 7.39204 13.2556C6.6309 14.0899 6.68652 14.6828 6.8671 15.033C7.09644 15.478 7.57847 15.6575 8.18924 15.6575C9.03073 15.6575 10.117 15.3163 11.1257 14.8607C11.2105 15.0241 12.4997 17.5534 12.4997 17.5534H7.44148L7.37385 17.4226ZM24.1321 25.4254C24.1321 29.1168 21.1291 32.1199 17.4377 32.1199C13.7466 32.1199 10.7436 29.1168 10.7436 25.4254V18.8765H11.9174V20.9124C11.9174 21.2777 12.2137 21.5737 12.5786 21.5737C12.9439 21.5737 13.2402 21.2777 13.2402 20.9124V18.8765C13.2402 18.8765 13.565 18.8772 13.5688 18.8772C13.5736 18.8772 21.6355 18.8765 21.6355 18.8765V25.4254C21.6355 27.7401 19.7524 29.6229 17.4377 29.6229C15.1233 29.6229 13.2402 27.7401 13.2402 25.4254V24.0494C13.2402 23.6841 12.9443 23.3878 12.579 23.3878C12.2137 23.3878 11.9174 23.6841 11.9174 24.0494V25.4254C11.9174 28.4693 14.3941 30.9457 17.438 30.9457C20.4819 30.9457 22.9583 28.4693 22.9583 25.4254V18.8765H24.1321V25.4254ZM32.9466 43.5584C30.6886 43.5584 28.8518 41.7213 28.8518 39.4636C28.8518 37.2055 30.6886 35.3684 32.9466 35.3684C35.2047 35.3684 37.0414 37.2055 37.0414 39.4636C37.0414 41.7213 35.2047 43.5584 32.9466 43.5584Z" fill="#595959"/>
</svg>
