<svg width="40" height="40" viewBox="0 0 40 40" fill="none" xmlns="http://www.w3.org/2000/svg">
<g clip-path="url(#clip0)">
<path d="M39.5783 34.841L32.9019 28.165C32.4457 27.7084 31.7928 27.525 31.1706 27.598L28.3791 24.8065C32.805 18.6914 32.2832 10.0822 26.7783 4.57723C20.6749 -1.5261 10.7455 -1.52539 4.64287 4.57723C-1.4601 10.6802 -1.4601 20.61 4.64287 26.713C7.69436 29.7645 11.7025 31.2902 15.7109 31.2902C18.9334 31.2902 22.1469 30.2862 24.8721 28.3139L27.6473 31.0893C27.5657 31.7101 27.7545 32.3601 28.2303 32.8363L34.9066 39.5123C35.2315 39.8378 35.6585 39.9998 36.0855 39.9998C36.5125 39.9998 36.9395 39.8378 37.264 39.5123L39.5783 37.1987C40.2282 36.5488 40.2282 35.491 39.5783 34.841ZM5.82173 25.5341C0.368726 20.0815 0.368726 11.2091 5.82173 5.75609C8.54805 3.02976 12.1295 1.66642 15.7109 1.66642C19.292 1.66642 22.8734 3.02976 25.5998 5.75609C31.0524 11.2091 31.0524 20.0815 25.5998 25.5341C20.1468 30.9868 11.2737 30.9868 5.82173 25.5341ZM27.4218 26.2065L29.6673 28.4521L28.5173 29.6021L26.2718 27.3562L27.4218 26.2065ZM36.0855 38.3338L29.4095 31.6578C29.2467 31.4954 29.2467 31.2304 29.4095 31.068L31.1336 29.3435C31.2397 29.2374 31.364 29.2217 31.4281 29.2217C31.493 29.2217 31.6165 29.2374 31.723 29.3435L38.3994 36.0202L36.0855 38.3338Z" fill="#595959"/>
<path d="M24.4205 6.93521C22.0941 4.60813 19.001 3.32671 15.7109 3.32671C12.4204 3.32671 9.32689 4.60813 7.00088 6.93521C4.67416 9.26122 3.39273 12.3544 3.39273 15.6448C3.39273 18.936 4.67416 22.0288 7.00088 24.3552C9.32689 26.6819 12.4204 27.9633 15.7109 27.9633C19.001 27.9633 22.0941 26.6819 24.4205 24.3552C26.7472 22.0288 28.0287 18.9353 28.0287 15.6448C28.0287 12.3547 26.7472 9.26122 24.4205 6.93521ZM23.2416 23.1763C21.2301 25.1882 18.5554 26.2962 15.7109 26.2962C12.8656 26.2962 10.1909 25.1882 8.17938 23.1763C6.16785 21.1648 5.06022 18.4901 5.06022 15.6448C5.06022 12.7999 6.16785 10.1252 8.17938 8.11371C10.1909 6.10182 12.8656 4.99384 15.7109 4.99384C18.5554 4.99384 21.2301 6.10182 23.2416 8.11371C25.2535 10.1252 26.3615 12.7999 26.3615 15.6448C26.3615 18.4901 25.2535 21.1648 23.2416 23.1763Z" fill="#595959"/>
</g>
<defs>
<clipPath id="clip0">
<rect width="40" height="40" fill="white"/>
</clipPath>
</defs>
</svg>
