<svg width="40" height="40" viewBox="0 0 40 40" fill="none" xmlns="http://www.w3.org/2000/svg">
<g clip-path="url(#clip0)">
<path d="M39.9461 13.0667L37.5101 7.22062C37.4258 7.01806 37.2513 6.86672 37.0389 6.81166L34.111 6.05255C25.5388 3.83009 14.4609 3.83019 5.88901 6.05255L2.961 6.81166C2.74863 6.86672 2.57411 7.01806 2.48979 7.22062L0.0539283 13.0667C-0.0131867 13.2277 -0.0178605 13.4079 0.0407484 13.5721L1.01504 16.3003C1.13207 16.6279 1.47138 16.8203 1.81275 16.752L11.0691 14.9007C11.3542 14.8437 11.5744 14.6166 11.623 14.33L12.4245 9.58329C16.8364 8.47468 23.1635 8.47468 27.5752 9.58329L28.3769 14.3301C28.4254 14.6168 28.6456 14.8438 28.9307 14.9008L38.187 16.7521C38.2331 16.7613 38.2792 16.7658 38.3248 16.7658C38.6159 16.7658 38.8835 16.5837 38.9848 16.3004L39.9592 13.5722C40.0178 13.4079 40.0131 13.2277 39.9461 13.0667ZM2.13188 15.2583L1.63179 13.858L10.5973 11.9841L10.3209 13.6206L2.13188 15.2583ZM11.6221 8.34475C11.3595 8.41719 11.1627 8.63517 11.1174 8.90382L10.848 10.4993L1.85987 12.3779L3.6501 8.08152L6.24085 7.40981C14.5991 5.24287 25.4006 5.24278 33.7592 7.40981L36.35 8.08152L38.1402 12.3779L29.1521 10.4993L28.8827 8.90382C28.8374 8.63527 28.6406 8.41719 28.378 8.34475C23.6016 7.02666 16.3983 7.02666 11.6221 8.34475ZM37.868 15.2583L29.6792 13.6206L29.4028 11.9841L38.3682 13.858L37.868 15.2583Z" fill="#595959"/>
<path d="M33.2901 17.1879C33.2305 16.9201 33.0204 16.7116 32.7521 16.6543L27.9775 15.6337L27.3764 11.7184C27.3239 11.3763 27.0296 11.1237 26.6835 11.1237H24.814V10.2058C24.814 9.81862 24.5002 9.50473 24.1129 9.50473C23.7256 9.50473 23.4118 9.81862 23.4118 10.2058V11.1237H16.5882V10.2058C16.5882 9.81862 16.2744 9.50473 15.8871 9.50473C15.4998 9.50473 15.186 9.81862 15.186 10.2058V11.1237H13.3165C12.9705 11.1237 12.676 11.3763 12.6236 11.7184L12.0224 15.6337L7.24786 16.6543C6.97959 16.7116 6.76946 16.9201 6.70991 17.1879L3.46792 31.7963C3.45689 31.8462 3.45128 31.8971 3.45128 31.9482V34.9131C3.45128 35.3003 3.76508 35.6142 4.15234 35.6142H35.8477C36.2349 35.6142 36.5487 35.3003 36.5487 34.9131V31.9482C36.5487 31.8971 36.5431 31.8462 36.5321 31.7963L33.2901 17.1879ZM7.98127 17.9312L12.7885 16.9036C13.0733 16.8428 13.2907 16.6123 13.335 16.3245L13.9182 12.5258H26.0819L26.665 16.3245C26.7093 16.6123 26.9267 16.8428 27.2115 16.9036L32.0188 17.9312L34.974 31.2471H5.02606L7.98127 17.9312ZM11.7965 32.6492L10.8935 34.212H9.82777L10.7308 32.6492H11.7965ZM13.416 32.6492H28.672L27.769 34.212H12.5129L13.416 32.6492ZM4.85341 32.6492H9.11138L8.20832 34.212H4.85341V32.6492ZM29.3884 34.212L30.2915 32.6492H35.1466V34.212H29.3884Z" fill="#595959"/>
<path d="M20 29.9155C24.1492 29.9155 27.5247 26.5399 27.5247 22.3907C27.5247 18.2416 24.1492 14.866 20 14.866C15.8508 14.866 12.4753 18.2416 12.4753 22.3907C12.4753 26.5399 15.8508 29.9155 20 29.9155ZM20 16.2681C23.376 16.2681 26.1226 19.0147 26.1226 22.3907C26.1226 25.7668 23.376 28.5133 20 28.5133C16.624 28.5133 13.8774 25.7668 13.8774 22.3907C13.8774 19.0147 16.624 16.2681 20 16.2681Z" fill="#595959"/>
<path d="M20 25.0597C21.4717 25.0597 22.6691 23.8623 22.6691 22.3906C22.6691 20.9188 21.4717 19.7215 20 19.7215C18.5282 19.7215 17.3308 20.9188 17.3308 22.3906C17.3308 23.8623 18.5282 25.0597 20 25.0597ZM20 21.1236C20.6986 21.1236 21.267 21.6919 21.267 22.3906C21.267 23.0892 20.6986 23.6575 20 23.6575C19.3014 23.6575 18.7329 23.0892 18.7329 22.3906C18.7329 21.692 19.3014 21.1236 20 21.1236Z" fill="#595959"/>
</g>
<defs>
<clipPath id="clip0">
<rect width="40" height="40" fill="white"/>
</clipPath>
</defs>
</svg>
