<svg width="53" height="53" viewBox="0 0 53 53" fill="none" xmlns="http://www.w3.org/2000/svg">
<g filter="url(#filter0_d)">
<path d="M39.1565 13.3593H26.5001C26.0146 13.3593 25.6212 13.7528 25.6212 14.2382C25.6212 14.7237 26.0146 15.1172 26.5001 15.1172H39.1565C39.6419 15.1172 40.0354 14.7237 40.0354 14.2382C40.0354 13.7528 39.6419 13.3593 39.1565 13.3593Z" fill="#494949"/>
<path d="M36.081 17.8357C35.9175 17.6723 35.6907 17.5782 35.4596 17.5782C35.2284 17.5782 35.0017 17.6723 34.8382 17.8357C34.6747 17.9992 34.5807 18.226 34.5807 18.4571C34.5807 18.6883 34.6747 18.915 34.8382 19.0785C35.0017 19.242 35.2284 19.336 35.4596 19.336C35.6907 19.336 35.9175 19.242 36.081 19.0785C36.2445 18.915 36.3385 18.6883 36.3385 18.4571C36.3385 18.226 36.2445 17.9992 36.081 17.8357Z" fill="#494949"/>
<path d="M27.1205 4.03691C26.9571 3.87343 26.7303 3.77939 26.4991 3.77939C26.268 3.77939 26.0412 3.87343 25.8778 4.03691C25.7143 4.20038 25.6202 4.42714 25.6202 4.65829C25.6202 4.88945 25.7143 5.1162 25.8778 5.27968C26.0412 5.44315 26.268 5.5372 26.4991 5.5372C26.7303 5.5372 26.9571 5.44315 27.1205 5.27968C27.284 5.1162 27.378 4.88945 27.378 4.65829C27.378 4.42714 27.284 4.20038 27.1205 4.03691Z" fill="#494949"/>
<path d="M31.7627 17.5781H26.5001C26.0146 17.5781 25.6212 17.9716 25.6212 18.457C25.6212 18.9424 26.0146 19.3359 26.5001 19.3359H31.7627C32.2481 19.3359 32.6416 18.9424 32.6416 18.457C32.6416 17.9716 32.2481 17.5781 31.7627 17.5781Z" fill="#494949"/>
<path d="M39.1565 22.8515H26.5001C26.0146 22.8515 25.6212 23.245 25.6212 23.7304C25.6212 24.2159 26.0146 24.6093 26.5001 24.6093H39.1565C39.6419 24.6093 40.0354 24.2159 40.0354 23.7304C40.0354 23.245 39.6419 22.8515 39.1565 22.8515Z" fill="#494949"/>
<path d="M36.081 27.3279C35.9175 27.1644 35.6907 27.0704 35.4596 27.0704C35.2284 27.0704 35.0017 27.1644 34.8382 27.3279C34.6747 27.4914 34.5807 27.7181 34.5807 27.9493C34.5807 28.1804 34.6747 28.4072 34.8382 28.5707C35.0017 28.7341 35.2284 28.8282 35.4596 28.8282C35.6907 28.8282 35.9175 28.7341 36.081 28.5707C36.2445 28.4072 36.3385 28.1804 36.3385 27.9493C36.3385 27.7181 36.2445 27.4914 36.081 27.3279Z" fill="#494949"/>
<path d="M31.7627 27.0703H26.5001C26.0146 27.0703 25.6212 27.4637 25.6212 27.9492C25.6212 28.4346 26.0146 28.8281 26.5001 28.8281H31.7627C32.2481 28.8281 32.6416 28.4346 32.6416 27.9492C32.6416 27.4637 32.2481 27.0703 31.7627 27.0703Z" fill="#494949"/>
<path d="M39.1565 32.3437H26.5001C26.0146 32.3437 25.6212 32.7372 25.6212 33.2226C25.6212 33.708 26.0146 34.1015 26.5001 34.1015H39.1565C39.6419 34.1015 40.0354 33.708 40.0354 33.2226C40.0354 32.7372 39.6419 32.3437 39.1565 32.3437Z" fill="#494949"/>
<path d="M36.081 36.8201C35.9175 36.6566 35.6907 36.5626 35.4596 36.5626C35.2284 36.5626 35.0017 36.6566 34.8382 36.8201C34.6747 36.9836 34.5807 37.2103 34.5807 37.4415C34.5807 37.6726 34.6747 37.8994 34.8382 38.0629C35.0017 38.2263 35.2284 38.3204 35.4596 38.3204C35.6907 38.3204 35.9175 38.2263 36.081 38.0629C36.2445 37.8994 36.3385 37.6726 36.3385 37.4415C36.3385 37.2103 36.2445 36.9836 36.081 36.8201Z" fill="#494949"/>
<path d="M31.7627 36.5624H26.5001C26.0146 36.5624 25.6212 36.9559 25.6212 37.4413C25.6212 37.9268 26.0146 38.3202 26.5001 38.3202H31.7627C32.2481 38.3202 32.6416 37.9268 32.6416 37.4413C32.6416 36.9559 32.2481 36.5624 31.7627 36.5624Z" fill="#494949"/>
<path d="M40.8474 3.42782H34.1345C33.1641 2.50312 31.8523 1.93359 30.4092 1.93359H29.6393C29.0507 0.768338 27.8414 0 26.4999 0C25.1585 0 23.9493 0.768338 23.3606 1.93359H22.5888C21.1457 1.93359 19.8341 2.50312 18.8637 3.42782H12.1526C9.78968 3.42782 7.86725 5.35024 7.86725 7.71318V40.7146C7.86725 43.0776 9.78968 45 12.1526 45H40.8474C43.2103 45 45.1327 43.0776 45.1327 40.7146V7.71318C45.1328 5.35024 43.2104 3.42782 40.8474 3.42782ZM22.5889 3.6914H23.9588C24.3541 3.6914 24.7007 3.42746 24.8059 3.04646C25.0156 2.2877 25.7122 1.75781 26.5 1.75781C27.2879 1.75781 27.9845 2.2877 28.194 3.04646C28.2992 3.42746 28.646 3.6914 29.0412 3.6914H30.4092C32.3169 3.6914 33.8871 5.16356 34.0438 7.03132H18.9543C19.111 5.16356 20.6813 3.6914 22.5889 3.6914ZM43.375 40.7147C43.375 42.1084 42.2411 43.2423 40.8474 43.2423H12.1526C10.7589 43.2423 9.62506 42.1084 9.62506 40.7147V7.71318C9.62506 6.3195 10.7589 5.18563 12.1526 5.18563H17.6323C17.3444 5.84586 17.1836 6.57377 17.1836 7.33894V7.91023C17.1836 8.39565 17.5771 8.78913 18.0625 8.78913H34.9357C35.4211 8.78913 35.8146 8.39565 35.8146 7.91023V7.33894C35.8146 6.57385 35.6538 5.84586 35.3659 5.18563H40.8474C42.2411 5.18563 43.375 6.3195 43.375 7.71318V40.7147Z" fill="#494949"/>
<path d="M20.911 13.148C20.5678 12.8047 20.0113 12.8047 19.6681 13.1479L15.9097 16.9063L14.7519 15.7485C14.4087 15.4053 13.8522 15.4053 13.5089 15.7485C13.1657 16.0917 13.1657 16.6482 13.5089 16.9915L15.2882 18.7708C15.4599 18.9425 15.6848 19.0283 15.9097 19.0283C16.1346 19.0283 16.3596 18.9425 16.5312 18.7708L20.911 14.391C21.2542 14.0478 21.2542 13.4913 20.911 13.148Z" fill="#494949"/>
<path d="M18.7657 32.3437H14.5469C14.0615 32.3437 13.668 32.7372 13.668 33.2226V37.4413C13.668 37.9268 14.0615 38.3202 14.5469 38.3202H18.7657C19.2511 38.3202 19.6446 37.9268 19.6446 37.4413V33.2226C19.6446 32.7372 19.2511 32.3437 18.7657 32.3437ZM17.8868 36.5624H15.4258V34.1015H17.8868V36.5624Z" fill="#494949"/>
<path d="M18.7657 22.8515H14.5469C14.0615 22.8515 13.668 23.245 13.668 23.7304V27.9492C13.668 28.4346 14.0615 28.8281 14.5469 28.8281H18.7657C19.2511 28.8281 19.6446 28.4346 19.6446 27.9492V23.7304C19.6446 23.245 19.2511 22.8515 18.7657 22.8515ZM17.8868 27.0703H15.4258V24.6093H17.8868V27.0703Z" fill="#494949"/>
<rect x="4.5" y="0.5" width="44" height="44" stroke="white"/>
</g>
<defs>
<filter id="filter0_d" x="0" y="0" width="53" height="53" filterUnits="userSpaceOnUse" color-interpolation-filters="sRGB">
<feFlood flood-opacity="0" result="BackgroundImageFix"/>
<feColorMatrix in="SourceAlpha" type="matrix" values="0 0 0 0 0 0 0 0 0 0 0 0 0 0 0 0 0 0 127 0"/>
<feOffset dy="4"/>
<feGaussianBlur stdDeviation="2"/>
<feColorMatrix type="matrix" values="0 0 0 0 0 0 0 0 0 0 0 0 0 0 0 0 0 0 0.25 0"/>
<feBlend mode="normal" in2="BackgroundImageFix" result="effect1_dropShadow"/>
<feBlend mode="normal" in="SourceGraphic" in2="effect1_dropShadow" result="shape"/>
</filter>
</defs>
</svg>
